<svg viewBox="0 0 200 200" fill="none"
  xmlns="http://www.w3.org/2000/svg">
  <path fill-rule="evenodd" clip-rule="evenodd" d="M64.2502 46.5359L28.5359 82.2502L21.4648 75.1791L57.1791 39.4648L64.2502 46.5359ZM92.9293 75.1432L64.322 46.5359L71.3931 39.4648L100 68.0722L128.608 39.4648L135.679 46.5359L107.071 75.1432L114.25 82.322L107.179 89.3931L100 82.2143L92.8216 89.3931L85.7506 82.322L92.9293 75.1432ZM142.822 39.4648L178.536 75.1791L171.465 82.2502L135.751 46.5359L142.822 39.4648ZM92.8934 160.822L21.4648 89.3931L28.5359 82.322L99.9645 153.751L92.8934 160.822ZM107.107 160.822L100.036 153.751L171.465 82.322L178.536 89.3931L107.107 160.822Z" fill="white"/>
</svg>
