<svg width="32" height="32" viewBox="0 0 32 32" fill="none" xmlns="http://www.w3.org/2000/svg">
<g clip-path="url(#clip0_254_1750)">
<path d="M8.38138 30.0719C10.6461 31.2989 13.2425 32 16 32C18.7574 32 21.3538 31.3036 23.6186 30.0719L16 18.7262L8.38138 30.0719Z" fill="#EE1122"/>
<path d="M6.22091 15.9787V13.3543H14.6876V10.6493H6.22091V8.0249H25.7838V10.6493H17.3171V13.3543H25.7838V15.9787H17.3171L25.817 28.6367C29.5789 25.709 32 21.1376 32 16.0024C32 7.16272 24.8362 0 16 0C7.16376 0 0 7.16272 0 15.9977C0 21.1329 2.42108 25.7043 6.183 28.6319L14.6876 15.974H6.22091V15.9787Z" fill="#EE1122"/>
</g>
<defs>
<clipPath id="clip0_254_1750">
<rect width="32" height="32" fill="white"/>
</clipPath>
</defs>
</svg>
