<svg viewBox="0 0 60 60" fill="none"
  xmlns="http://www.w3.org/2000/svg">
  <path fill-rule="evenodd" clip-rule="evenodd" d="M43.7647 12H16.2353V9H43.7647V12ZM12 16.2353V43.7647H9V16.2353H12ZM51 43.7647H48V16.2353H51V43.7647ZM38.0294 26.9118C36.3238 26.9118 34.9412 28.2944 34.9412 30C34.9412 31.7056 36.3238 33.0882 38.0294 33.0882C39.735 33.0882 41.1176 31.7056 41.1176 30C41.1176 28.2944 39.735 26.9118 38.0294 26.9118ZM31.9412 30C31.9412 26.6376 34.667 23.9118 38.0294 23.9118C41.3919 23.9118 44.1176 26.6376 44.1176 30C44.1176 33.3624 41.3919 36.0882 38.0294 36.0882C34.667 36.0882 31.9412 33.3624 31.9412 30ZM16.2353 48H43.7647V51H16.2353V48Z" fill="black"/>
</svg>
